{"title":"Hellsing Ultimate ep 1-8","uid":9417064,"size":854614822,"categoryP":"video","categoryS":"tv_shows","magnet":"?xt=urn:btih:f5d8236961fa930f5ce1e43ab8767c4f5addc480&amp;dn=Hellsing+Ultimate+ep+1-8&amp;tr=udp%3A%2F%2Ftracker.openbittorrent.com%3A80&amp;tr=udp%3A%2F%2Fopen.demonii.com%3A1337&amp;tr=udp%3A%2F%2Ftracker.coppersurfer.tk%3A6969&amp;tr=udp%3A%2F%2Fexodus.desync.com%3A6969","seeders":1,"leechers":0,"uploader":"p7trick","files":-1,"time":1388476382,"description":"downloaded from justdubs\n\nHellsing Ultimate ENGLISH DUBBED eps 1-8\n_________________________________________________________\n\nFormat                                   : MPEG-4\nFormat profile                           : Base Media\nCodec ID                                 : isom\nFile size                                : 80.9 MiB\nDuration                                 : 50mn 18s\nOverall bit rate mode                    : Variable\nOverall bit rate                         : 225 Kbps\n\nVideo\nID                                       : 1\nFormat                                   : AVC\nFormat/Info                              : Advanced Video Codec\nFormat profile                           : &lt;a class=&quot;__cf_email__&quot; href=&quot;/cdn-cgi/l/email-protection&quot; data-cfemail=&quot;e5ad8c828da5a9d6cbd5&quot;&gt;[email&amp;#160;protected]&lt;/a&gt;&lt;script cf-hash='f9e31' type=&quot;text/javascript&quot;&gt;\n/* &lt;![CDATA[ */!function(){try{var t=&quot;currentScript&quot;in document?document.currentScript:function(){for(var t=document.getElementsByTagName(&quot;script&quot;),e=t.length;e--;)if(t[e].getAttribute(&quot;cf-hash&quot;))return t[e]}();if(t&amp;&amp;t.previousSibling){var e,r,n,i,c=t.previousSibling,a=c.getAttribute(&quot;data-cfemail&quot;);if(a){for(e=&quot;&quot;,r=parseInt(a.substr(0,2),16),n=2;a.length-n;n+=2)i=parseInt(a.substr(n,2),16)^r,e+=String.fromCharCode(i);e=document.createTextNode(e),c.parentNode.replaceChild(e,c)}}}catch(u){}}();/* ]]&gt; */&lt;/script&gt;\nFormat settings, CABAC                   : Yes\nFormat settings, ReFrames                : 8 frames\nCodec ID                                 : avc1\nCodec ID/Info                            : Advanced Video Coding\nDuration                                 : 50mn 18s\nBit rate mode                            : Variable\nBit rate                                 : 160 Kbps\nMaximum bit rate                         : 1 478 Kbps\nWidth                                    : 704 pixels\nHeight                                   : 392 pixels\nDisplay aspect ratio                     : 16:9\nFrame rate mode                          : Constant\nFrame rate                               : 23.976 fps\nColor space                              : YUV\nChroma subsampling                       : 4:2:0\nBit depth                                : 8 bits\nScan type                                : Progressive\nBits/(Pixel*Frame)                       : 0.024\nStream size                              : 57.6 MiB (71%)\nWriting library                          : x264 core 119 r2106 07efeb4\n\nAudio\nID                                       : 2\nFormat                                   : AAC\nFormat/Info                              : Advanced Audio Codec\nFormat profile                           : HE-AAC / LC\nCodec ID                                 : 40\nDuration                                 : 50mn 17s\nBit rate mode                            : Variable\nBit rate                                 : 61.5 Kbps\nMaximum bit rate                         : 84.6 Kbps\nChannel(s)                               : 6 channels\nChannel positions                        : Front: L C R, Side: L R, LFE\nSampling rate                            : 48.0 KHz / 24.0 KHz\nCompression mode                         : Lossy\nStream size                              : 22.1 MiB (27%)\n\n_________________________________________________________\n\nSummary:\nHellsing, a secret organization of the British government, have long been battling supernatural threats to keep the people safe from the creatures of the night. The current leader, Integra Wingates Hellsing controls her own personal army to eliminate the undead beings, but even her highly trained soldiers pale in comparison to her most trusted vampire exterminator, a man by the name of Alucard, who is actually a powerful vampire himself. Along with Integra's mysterious butler and Alucard's new vampire minion, Seras Victoria, The Hellsing Organization must face not only regular ghouls and vampires, but a rivalling secret organization from the Vatican, and Millennium, an enigmatic group of madmen spawned by a certain war over 50 years ago...\n\n_________________________________________________________\n\nFor updates/requests:\nTwitter - @p7tricktorrent\nFacebook - /p7tricktorrent\nTPB - /user/p7trick/\nKAT - /user/iPirate7\n_________________________________________________________\n\nSEED!\n\nshare ratio:\n&quot;Scumbag = 0.1:1\nLeecher = 0.999:1\nMinimum = 1:1\nGood = 3:1\nGreat = 5:1\nAwesome = 10:1\n1337 = 100:1&quot;\t","torrent":{"xt":"urn:btih:f5d8236961fa930f5ce1e43ab8767c4f5addc480","amp;dn":"Hellsing+Ultimate+ep+1-8","amp;tr":["udp%3A%2F%2Ftracker.openbittorrent.com%3A80","udp%3A%2F%2Fopen.demonii.com%3A1337","udp%3A%2F%2Ftracker.coppersurfer.tk%3A6969","udp%3A%2F%2Fexodus.desync.com%3A6969"],"infoHash":"f5d8236961fa930f5ce1e43ab8767c4f5addc480","infoHashBuffer":{"type":"Buffer","data":[245,216,35,105,97,250,147,15,92,225,228,58,184,118,124,79,90,221,196,128]},"announce":[],"urlList":[]}}